<svg width="20" height="20" viewBox="0 0 20 20" fill="none" xmlns="http://www.w3.org/2000/svg">
<path d="M14.2424 0.694824C12.8999 0.694709 11.6123 1.22785 10.6629 2.17698L8.01117 4.8287C7.7915 5.04837 7.7915 5.40452 8.01117 5.6242C8.23084 5.84387 8.58699 5.84387 8.80666 5.6242L11.4582 2.97261C12.1967 2.23444 13.1982 1.81973 14.2423 1.81982C15.2865 1.81991 16.2879 2.23475 17.0262 2.97309C17.7646 3.71143 18.1794 4.71281 18.1795 5.75699C18.1796 6.80113 17.765 7.80255 17.0268 8.54101L14.3751 11.1927C14.1555 11.4123 14.1555 11.7685 14.3751 11.9882C14.5948 12.2078 14.951 12.2078 15.1706 11.9882L17.8223 9.33651C18.7714 8.38705 19.3046 7.0994 19.3045 5.75689C19.3044 4.41438 18.771 3.12689 17.8217 2.1776C16.8724 1.2283 15.5849 0.694939 14.2424 0.694824Z" fill="#0D0525" fill-opacity="0.95"/>
<path d="M13.5794 6.41939C13.799 6.63906 13.799 6.99522 13.5794 7.21489L7.21541 13.5788C6.99574 13.7985 6.63959 13.7985 6.41992 13.5788C6.20025 13.3592 6.20025 13.003 6.41992 12.7834L12.7839 6.41939C13.0035 6.19972 13.3597 6.19972 13.5794 6.41939Z" fill="#0D0525" fill-opacity="0.95"/>
<path d="M5.62423 8.01113C5.8439 8.2308 5.8439 8.58695 5.62423 8.80662L2.97265 11.4582C2.23447 12.1967 1.81977 13.1982 1.81985 14.2423C1.81994 15.2865 2.23478 16.2878 2.97312 17.0262C3.71146 17.7645 4.71284 18.1794 5.75702 18.1795C6.80119 18.1795 7.80264 17.7649 8.54111 17.0267L11.1927 14.3751C11.4124 14.1554 11.7685 14.1554 11.9882 14.3751C12.2079 14.5948 12.2079 14.9509 11.9882 15.1706L9.33654 17.8222C8.38708 18.7714 7.09943 19.3046 5.75692 19.3045C4.41441 19.3043 3.12692 18.771 2.17763 17.8217C1.22833 16.8724 0.69497 15.5849 0.694855 14.2424C0.69474 12.8999 1.22788 11.6123 2.17701 10.6628L4.82873 8.01113C5.0484 7.79146 5.40456 7.79146 5.62423 8.01113Z" fill="#0D0525" fill-opacity="0.95"/>
</svg>
