<svg width="18" height="18" viewBox="0 0 18 18" fill="none" xmlns="http://www.w3.org/2000/svg">
<path fill-rule="evenodd" clip-rule="evenodd" d="M0.43934 0.43934C0.720644 0.158036 1.10217 0 1.5 0H16.5C16.8978 0 17.2794 0.158035 17.5607 0.43934C17.842 0.720645 18 1.10218 18 1.5V11.6893C18 11.8863 17.9612 12.0814 17.8858 12.2634C17.8104 12.4454 17.6999 12.6107 17.5607 12.75L12.75 17.5607C12.6107 17.6999 12.4454 17.8104 12.2634 17.8858C12.0814 17.9612 11.8863 18 11.6893 18H1.5C1.10218 18 0.720645 17.842 0.43934 17.5607C0.158035 17.2794 0 16.8978 0 16.5V1.5C0 1.10217 0.158036 0.720644 0.43934 0.43934ZM16.5 1.5L1.5 1.5L1.5 16.5L11.6893 16.5L16.5 11.6893V1.5Z" fill="#0D0525" fill-opacity="0.95"/>
<path fill-rule="evenodd" clip-rule="evenodd" d="M11.25 11.9992C11.25 11.585 11.5858 11.2492 12 11.2492H17.1826C17.5968 11.2492 17.9326 11.585 17.9326 11.9992C17.9326 12.4135 17.5968 12.7492 17.1826 12.7492H12.75V17.1817C12.75 17.596 12.4142 17.9317 12 17.9317C11.5858 17.9317 11.25 17.596 11.25 17.1817V11.9992Z" fill="#0D0525" fill-opacity="0.95"/>
</svg>
